# xmcd
#
# Track frame offsets:
#	150
#	23713
#	45175
#	65760
#	81247
#	97323
#	109753
#	128283
#	141798
#	162780
#	174328
#	189078
#	202985
#	217030
#
# Disc length: 3032 seconds
#
# Revision: 0
# Processed by: cddbd v1.5.2PL0 Copyright (c) Steve Scherf et al.
# Submitted via: EasyCDDAExtractor 16.0.6.1
#
DISCID=b50bd60e
DTITLE=Various  - Ciao Italia! 2 Cd2
DYEAR=2012
DGENRE=Ακουστικά
TTITLE0=Caruso (Lucio Dalla)
TTITLE1=E Tu...
TTITLE2=Margherita
TTITLE3=La Tua Idea
TTITLE4=Vedrai Vedrai
TTITLE5=Ritornerai
TTITLE6=Vado Via
TTITLE7=Ridera
TTITLE8=Minuetto
TTITLE9=Ho Capito Che Ti Amo
TTITLE10=Il Cuore E' Uno Zingaro
TTITLE11=Non Son Degno Di Te
TTITLE12=La Piu Bella Del Mondo
TTITLE13=Il Balo Del Mattone
EXTD=
EXTT0=
EXTT1=
EXTT2=
EXTT3=
EXTT4=
EXTT5=
EXTT6=
EXTT7=
EXTT8=
EXTT9=
EXTT10=
EXTT11=
EXTT12=
EXTT13=
PLAYORDER=
